<?xml version="1.0" standalone="no"?>
<!DOCTYPE svg PUBLIC "-//W3C//DTD SVG 20010904//EN"
 "http://www.w3.org/TR/2001/REC-SVG-20010904/DTD/svg10.dtd">
<svg version="1.0" xmlns="http://www.w3.org/2000/svg"
 width="590.000000pt" height="675.000000pt" viewBox="0 0 590.000000 675.000000"
 preserveAspectRatio="xMidYMid meet">

<g transform="translate(0.000000,675.000000) scale(0.100000,-0.100000)"
fill="#000000" stroke="none">
<path d="M2777 6729 c-128 -14 -260 -69 -355 -147 -102 -83 -137 -240 -92
-407 28 -105 112 -306 201 -480 39 -77 85 -166 101 -198 16 -32 53 -96 83
-141 91 -138 77 -132 -105 45 -192 186 -445 395 -604 497 -93 60 -208 113
-275 128 -171 36 -334 -58 -429 -248 -64 -126 -75 -187 -69 -353 4 -134 6
-144 41 -224 57 -132 113 -207 213 -288 90 -72 238 -154 315 -174 98 -25 167
-38 241 -44 l78 -7 -43 -36 c-23 -21 -52 -46 -63 -57 -49 -50 -213 -135 -335
-174 -71 -22 -170 -36 -325 -46 -55 -4 -125 -13 -155 -22 -80 -22 -175 -78
-227 -133 -44 -47 -55 -53 -293 -162 -67 -31 -151 -87 -255 -171 -33 -26 -80
-60 -105 -74 -25 -14 -54 -34 -65 -44 -11 -10 -63 -43 -115 -74 -154 -92 -137
-35 -139 -475 l-2 -379 23 -5 c13 -3 84 -17 158 -32 144 -28 148 -29 310 -68
162 -39 238 -62 444 -131 311 -105 408 -116 600 -70 159 39 233 67 421 162 80
41 284 173 304 197 12 15 1 16 -121 16 -152 0 -262 23 -413 85 -127 53 -240
125 -196 125 5 0 38 -15 73 -34 34 -19 117 -52 183 -74 132 -45 293 -68 400
-59 33 3 123 10 200 16 162 11 202 19 314 62 68 26 86 38 107 69 45 67 34 73
-171 93 -399 41 -641 94 -955 211 -36 13 -87 32 -115 41 -27 10 -65 25 -84 33
-89 42 -311 322 -311 392 0 41 43 124 78 148 36 26 125 56 227 76 232 47 357
88 461 150 195 117 284 234 301 396 l6 58 41 5 c86 12 350 99 486 159 55 25
120 42 120 32 0 -17 -34 -64 -62 -86 -18 -14 -53 -46 -78 -70 -25 -24 -128
-107 -230 -183 -102 -76 -384 -289 -628 -472 l-442 -334 43 -52 c23 -29 58
-72 77 -97 44 -59 160 -148 230 -176 30 -12 89 -29 130 -37 41 -9 116 -28 165
-42 102 -29 151 -40 281 -62 l92 -15 188 139 c104 77 297 220 429 318 132 98
286 212 343 253 56 42 102 80 102 84 0 12 -113 200 -155 259 -18 26 -41 62
-50 80 -10 19 -55 90 -100 159 -142 215 -237 382 -223 391 22 14 68 -31 138
-139 38 -59 74 -112 79 -118 5 -6 35 -51 66 -100 244 -379 317 -484 329 -477
6 4 121 88 256 187 858 630 1100 810 1100 818 0 5 -9 22 -20 36 -31 39 -160
232 -233 347 -83 130 -175 262 -260 369 l-67 86 -548 -411 c-532 -400 -550
-412 -647 -449 -55 -21 -102 -37 -103 -35 -4 3 34 60 129 190 118 163 216 323
292 475 76 154 87 180 123 300 25 83 29 111 29 225 0 104 -4 140 -19 180 -20
53 -57 109 -91 137 -40 35 -193 107 -266 127 -137 37 -348 50 -512 30z m213
-126 c106 -75 166 -245 176 -505 8 -181 -8 -301 -82 -618 -34 -145 -105 -380
-115 -380 -27 0 -117 274 -154 470 -14 74 -31 160 -38 190 -8 35 -12 140 -12
290 l0 235 33 110 c33 109 61 159 111 202 31 27 49 29 81 6z m-1284 -1104 c66
-12 212 -65 289 -104 28 -15 113 -59 190 -100 77 -40 174 -91 215 -112 41 -22
84 -44 95 -51 11 -6 76 -39 145 -73 69 -33 127 -63 129 -65 14 -13 -37 -26
-189 -50 -144 -22 -366 -22 -515 0 -201 29 -443 106 -559 176 -94 58 -151 161
-144 259 2 36 9 49 38 72 64 52 184 70 306 48z"/>
<path d="M2820 1460 l0 -1450 1535 0 1535 0 0 1450 0 1450 -1535 0 -1535 0 0
-1450z"/>
</g>
</svg>
